<?xml version="1.0"?>
<svg xmlns="http://www.w3.org/2000/svg" xmlns:xlink="http://www.w3.org/1999/xlink" version="1.1" id="Capa_1" x="0px" y="0px" viewBox="0 0 512 512" style="enable-background:new 0 0 512 512;" xml:space="preserve" width="512px" height="512px" class=""><g><path style="fill:#FFBC42" d="M504,328H198.802L115.127,54.155C112.54,45.689,104.854,40,96,40H8c-4.418,0-8,3.582-8,8v24  c0,4.418,3.582,8,8,8h73.198l83.675,273.845C167.46,362.312,175.146,368,184,368h320c4.418,0,8-3.582,8-8v-24  C512,331.582,508.418,328,504,328z" data-original="#DDD8D5" class="" data-old_color="#DDD8D5"/><path style="fill:#437DBF" d="M510.428,115.237C508.919,113.201,506.534,112,504,112H160c-2.534,0-4.919,1.201-6.428,3.237  c-1.509,2.037-1.964,4.667-1.226,7.092l56,184c1.025,3.369,4.132,5.671,7.653,5.671h232c3.521,0,6.628-2.302,7.653-5.671l56-184  C512.392,119.905,511.937,117.274,510.428,115.237z" data-original="#EE6482" class="" data-old_color="#EE6482"/><path style="fill:#235390" d="M170.073,112H160c-2.534,0-4.919,1.201-6.428,3.237c-1.509,2.037-1.964,4.667-1.226,7.092l56,184  c1.025,3.369,4.132,5.671,7.653,5.671h232c3.521,0,6.628-2.302,7.653-5.671L458.797,296L170.073,112z" data-original="#DE5762" class="" data-old_color="#DE5762"/><path style="fill:#78C800" d="M256,376c-26.468,0-48,21.533-48,48s21.532,48,48,48s48-21.533,48-48S282.468,376,256,376z" data-original="#AED45B" class="active-path" data-old_color="#AED45B"/><path style="fill:#EBF4D6;" d="M256,400c-13.233,0-24,10.766-24,24s10.767,24,24,24s24-10.766,24-24S269.233,400,256,400z" data-original="#EBF4D6" class=""/><path style="fill:#78C800" d="M408,376c-26.468,0-48,21.533-48,48s21.532,48,48,48s48-21.533,48-48S434.468,376,408,376z" data-original="#AED45B" class="active-path" data-old_color="#AED45B"/><path style="fill:#EBF4D6;" d="M408,400c-13.233,0-24,10.766-24,24s10.767,24,24,24s24-10.766,24-24S421.233,400,408,400z" data-original="#EBF4D6" class=""/><g>
	<path style="fill:#FFFFFF" d="M288,263.5c-6.558,0-9.924-8.183-5.304-12.803l96-96c2.93-2.929,7.678-2.929,10.607,0   s2.929,7.678,0,10.606l-96,96C291.839,262.768,289.919,263.5,288,263.5z" data-original="#FFFFFF" class="" data-old_color="#FFFFFF"/>
	<path style="fill:#FFFFFF" d="M376,263.5c-12.958,0-23.5-10.542-23.5-23.5s10.542-23.5,23.5-23.5s23.5,10.542,23.5,23.5   S388.958,263.5,376,263.5z M376,231.5c-4.687,0-8.5,3.813-8.5,8.5s3.813,8.5,8.5,8.5s8.5-3.813,8.5-8.5S380.687,231.5,376,231.5z" data-original="#FFFFFF" class="" data-old_color="#FFFFFF"/>
	<path style="fill:#FFFFFF" d="M296,199.5c-12.958,0-23.5-10.542-23.5-23.5s10.542-23.5,23.5-23.5s23.5,10.542,23.5,23.5   S308.958,199.5,296,199.5z M296,167.5c-4.687,0-8.5,3.813-8.5,8.5s3.813,8.5,8.5,8.5s8.5-3.813,8.5-8.5S300.687,167.5,296,167.5z" data-original="#FFFFFF" class="" data-old_color="#FFFFFF"/>
</g></g> </svg>
