<svg id="svg" version="1.1" xmlns="http://www.w3.org/2000/svg" xmlns:xlink="http://www.w3.org/1999/xlink" width="400" height="399.1697799916978" viewBox="0, 0, 400,399.1697799916978"><g id="svgg"><path id="path0" d="M190.167 0.183 C 182.779 0.519,171.132 1.693,166.917 2.525 C 166.458 2.616,165.933 2.715,165.750 2.747 C 165.567 2.778,165.004 2.885,164.500 2.985 C 163.996 3.084,163.358 3.198,163.083 3.237 C 162.808 3.276,162.424 3.345,162.229 3.390 C 162.035 3.436,161.622 3.515,161.313 3.568 C 160.635 3.682,160.033 3.802,159.583 3.912 C 158.252 4.239,157.167 4.445,157.103 4.381 C 157.062 4.340,156.877 4.388,156.691 4.487 C 156.506 4.586,156.106 4.700,155.802 4.739 C 155.498 4.779,155.250 4.822,155.250 4.835 C 155.250 4.872,154.094 5.125,153.462 5.225 C 153.303 5.250,153.127 5.317,153.070 5.374 C 153.014 5.431,152.870 5.440,152.751 5.394 C 152.631 5.348,152.486 5.387,152.428 5.481 C 152.370 5.575,152.220 5.613,152.095 5.565 C 151.970 5.517,151.817 5.559,151.755 5.658 C 151.694 5.757,151.587 5.804,151.519 5.761 C 151.450 5.719,150.049 6.056,148.405 6.511 C 146.761 6.966,145.229 7.379,145.000 7.429 C 141.709 8.149,129.489 12.422,123.000 15.121 C 113.166 19.212,97.086 27.597,93.143 30.690 C 92.809 30.952,92.491 31.167,92.438 31.167 C 91.787 31.167,78.501 40.792,73.583 44.827 C 72.850 45.429,71.956 46.140,71.597 46.407 C 71.237 46.675,70.596 47.199,70.171 47.572 C 69.747 47.945,69.129 48.477,68.800 48.754 C 62.683 53.902,54.955 61.651,48.618 68.991 C 48.179 69.500,47.646 70.104,47.433 70.333 C 47.221 70.563,46.831 71.050,46.566 71.417 C 46.302 71.783,45.442 72.871,44.657 73.833 C 40.255 79.229,31.667 91.165,31.667 91.888 C 31.667 92.580,45.145 99.284,52.096 102.048 C 88.314 116.452,126.617 117.136,166.333 104.089 C 190.166 96.259,210.351 96.339,233.988 104.357 C 278.255 119.372,326.040 115.427,365.321 93.516 C 366.643 92.778,367.782 92.117,367.852 92.046 C 368.201 91.691,359.272 79.211,353.947 72.611 C 347.569 64.707,338.570 55.471,330.738 48.789 C 330.011 48.169,329.267 47.522,329.083 47.350 C 328.900 47.179,328.366 46.749,327.898 46.394 C 327.429 46.040,325.960 44.876,324.633 43.807 C 321.464 41.254,316.860 37.806,313.750 35.655 C 312.375 34.705,311.212 33.883,311.167 33.829 C 311.121 33.776,310.183 33.145,309.083 32.427 C 307.983 31.710,306.893 30.992,306.660 30.833 C 306.102 30.449,301.005 27.333,300.937 27.333 C 300.907 27.333,300.216 26.932,299.400 26.441 C 287.634 19.367,266.654 10.499,254.365 7.406 C 254.210 7.367,252.883 6.997,251.417 6.584 C 249.950 6.171,248.525 5.799,248.250 5.758 C 247.975 5.717,247.563 5.637,247.333 5.582 C 247.104 5.526,246.804 5.453,246.667 5.420 C 246.529 5.386,246.417 5.347,246.417 5.332 C 246.417 5.318,246.267 5.281,246.083 5.251 C 245.900 5.221,245.563 5.152,245.333 5.097 C 245.104 5.042,244.692 4.957,244.417 4.908 C 244.142 4.859,243.617 4.738,243.250 4.640 C 242.883 4.542,242.358 4.427,242.083 4.385 C 241.808 4.343,241.283 4.236,240.917 4.149 C 239.495 3.809,238.975 3.698,238.187 3.567 C 237.878 3.515,237.465 3.435,237.271 3.390 C 236.706 3.258,236.296 3.185,235.583 3.090 C 235.217 3.041,234.729 2.954,234.500 2.896 C 234.271 2.839,233.933 2.769,233.750 2.741 C 233.567 2.713,233.042 2.616,232.583 2.525 C 223.203 0.672,203.415 -0.420,190.167 0.183 " stroke="none" fill="#f3bb14" fill-rule="evenodd"></path><path id="path1" d="M60.077 56.708 L 59.250 57.583 60.125 56.756 C 60.606 56.301,61.000 55.908,61.000 55.881 C 61.000 55.757,60.846 55.895,60.077 56.708 M197.750 134.117 C 154.644 135.232,123.022 175.261,131.664 217.773 C 132.164 220.233,132.316 220.843,132.992 223.083 C 133.186 223.725,133.534 224.955,133.767 225.817 C 137.815 240.840,153.377 258.980,168.000 265.721 C 179.961 271.235,187.907 273.076,199.750 273.076 C 211.610 273.076,219.540 271.239,231.500 265.721 C 242.007 260.874,253.774 249.603,260.345 238.092 C 262.954 233.523,266.165 225.814,266.668 222.917 C 266.747 222.458,267.006 221.333,267.242 220.417 C 270.713 206.980,269.450 189.761,264.054 176.945 C 252.804 150.223,226.709 133.367,197.750 134.117 " stroke="none" fill="#f4431c" fill-rule="evenodd"></path><path id="path2" d="M32.667 119.600 C 21.179 120.949,12.882 127.921,9.183 139.333 C -2.058 174.011,-3.043 215.171,6.508 251.056 C 13.667 277.953,26.213 302.629,44.060 324.917 C 45.161 326.292,46.326 327.754,46.649 328.167 C 51.897 334.865,63.119 346.103,71.160 352.712 C 73.594 354.713,74.657 355.546,79.122 358.950 C 107.710 380.752,141.662 394.362,177.333 398.321 C 182.108 398.851,186.318 399.167,188.604 399.167 L 190.688 399.167 190.621 372.958 C 190.549 344.423,190.577 345.335,189.571 339.333 C 187.975 329.812,183.400 318.410,178.603 312.000 C 178.225 311.496,177.804 310.866,177.667 310.600 C 177.091 309.486,173.071 304.731,170.670 302.324 C 165.235 296.876,160.636 293.548,152.843 289.422 C 114.278 269.007,93.018 227.047,99.600 184.333 C 100.005 181.707,100.528 179.095,101.454 175.083 C 102.022 172.621,102.100 167.233,101.606 164.583 C 100.077 156.390,95.527 150.091,87.888 145.594 C 83.633 143.089,72.404 136.601,70.374 135.475 C 69.159 134.801,63.759 131.713,58.374 128.611 C 45.228 121.040,44.528 120.705,40.183 119.905 C 38.813 119.653,33.909 119.454,32.667 119.600 M361.417 119.598 C 355.472 120.453,354.716 120.788,341.287 128.516 C 335.807 131.670,328.877 135.637,325.886 137.333 C 319.008 141.234,311.721 145.495,309.655 146.824 C 300.047 153.007,295.522 164.780,298.330 176.294 C 308.289 217.145,290.994 260.770,255.571 284.149 C 252.675 286.060,249.289 288.041,245.092 290.278 C 236.359 294.933,228.184 301.843,223.334 308.667 C 222.846 309.354,221.939 310.599,221.319 311.432 C 216.354 318.111,211.938 328.599,210.169 337.913 C 208.941 344.380,208.840 347.265,208.836 375.708 L 208.833 399.167 210.907 399.167 C 224.190 399.167,248.054 394.564,264.500 388.831 C 286.875 381.030,304.377 371.420,324.138 356.083 C 334.808 347.802,352.066 330.632,355.583 324.797 C 355.675 324.645,356.619 323.410,357.680 322.052 C 395.176 274.090,408.452 211.496,393.815 151.679 C 389.934 135.818,387.144 130.101,380.917 125.249 C 375.610 121.113,367.409 118.737,361.417 119.598 " stroke="none" fill="#24347c" fill-rule="evenodd"></path></g></svg>