<?xml version="1.0"?>
<svg xmlns="http://www.w3.org/2000/svg" height="512px" viewBox="0 0 512 512" width="512px" class=""><g><g id="Flat"><path d="m432 112v-88h-88v32h32l-96 96-80-80-120 120 24 24 96-96 80 80 120-120v32z" fill="#f35244" data-original="#F35244" class=""/><path d="m40 424h80v32h-80z" fill="#fca713" data-original="#FCA713" class="" style="fill:#FFBE3E" data-old_color="#fca713"/><path d="m104 456h80v32h-80z" fill="#fca713" data-original="#FCA713" class="" style="fill:#FFBE3E" data-old_color="#fca713"/><path d="m104 392h80v32h-80z" fill="#fca713" data-original="#FCA713" class="" style="fill:#FFBE3E" data-old_color="#fca713"/><path d="m200 424h80v32h-80z" fill="#fca713" data-original="#FCA713" class="" style="fill:#FFBE3E" data-old_color="#fca713"/><g fill="#f4c067"><path d="m184 456h80v32h-80z" data-original="#F4C067" class="" style="fill:#FFBC42" data-old_color="#F4C067"/><path d="m184 392h80v32h-80z" data-original="#F4C067" class="" style="fill:#FFBC42" data-old_color="#F4C067"/><path d="m120 424h80v32h-80z" data-original="#F4C067" class="" style="fill:#FFBC42" data-old_color="#F4C067"/><path d="m120 360h80v32h-80z" data-original="#F4C067" class="" style="fill:#FFBC42" data-old_color="#F4C067"/><path d="m24 456h80v32h-80z" data-original="#F4C067" class="" style="fill:#FFBC42" data-old_color="#F4C067"/><path d="m24 392h80v32h-80z" data-original="#F4C067" class="" style="fill:#FFBC42" data-old_color="#F4C067"/></g><path d="m264 424h184v64h-184z" fill="#80c326" data-original="#80C326" class="" style="fill:#78C800" data-old_color="#80c326"/><path d="m426.56543 424a136.15545 136.15545 0 0 1 -110.03711 56h-52.52832v8h184v-64z" fill="#69a709" data-original="#69A709" class="" style="fill:#69AF00" data-old_color="#69a709"/><path d="m336 424h32v64h-32z" fill="#fca713" data-original="#FCA713" class="" style="fill:#FFBE3E" data-old_color="#fca713"/><path d="m296 360h184v64h-184z" fill="#80c326" data-original="#80C326" class="" style="fill:#78C800" data-old_color="#80c326"/><path d="m458.56543 360a136.15545 136.15545 0 0 1 -110.03711 56h-52.52832v8h184v-64z" fill="#69a709" data-original="#69A709" class="" style="fill:#69AF00" data-old_color="#69a709"/><path d="m368 360h32v64h-32z" fill="#fca713" data-original="#FCA713" class="" style="fill:#FFBE3E" data-old_color="#fca713"/><path d="m264 296h184v64h-184z" fill="#80c326" data-original="#80C326" class="" style="fill:#78C800" data-old_color="#80c326"/><path d="m426.56543 296a136.15545 136.15545 0 0 1 -110.03711 56h-52.52832v8h184v-64z" fill="#69a709" data-original="#69A709" class="" style="fill:#69AF00" data-old_color="#69a709"/><path d="m336 296h32v64h-32z" fill="#fca713" data-original="#FCA713" class="" style="fill:#FFBE3E" data-old_color="#fca713"/><path d="m240 392h24v32h-24z" fill="#f5b142" data-original="#F5B142" class="" style="fill:#F7A73F" data-old_color="#f5b142"/><path d="m240 424h24v32h-24z" fill="#ed8515" data-original="#ED8515" class=""/><path d="m240 456h24v32h-24z" fill="#f5b142" data-original="#F5B142" class="" style="fill:#F7A73F" data-old_color="#f5b142"/><path d="m160 456h24v32h-24z" fill="#ed8515" data-original="#ED8515" class=""/><path d="m176 424h24v32h-24z" fill="#fca713" data-original="#FCA713" class="" style="fill:#FFBE3E" data-old_color="#fca713"/><path d="m160 392h24v32h-24z" fill="#ed8515" data-original="#ED8515" class=""/><path d="m80 456h24v32h-24z" fill="#f5b142" data-original="#F5B142" class="" style="fill:#F7A73F" data-old_color="#f5b142"/><path d="m96 424h24v32h-24z" fill="#ed8515" data-original="#ED8515" class=""/><path d="m80 392h24v32h-24z" fill="#f5b142" data-original="#F5B142" class="" style="fill:#F7A73F" data-old_color="#f5b142"/><path d="m184 360h24v32h-24z" fill="#f5b142" data-original="#F5B142" class="" style="fill:#F7A73F" data-old_color="#f5b142"/><path d="m160 208h32v128h-32z" fill="#4db7e5" data-original="#4DB7E5" class="active-path" style="fill:#3287E4" data-old_color="#4db7e5"/><path d="m240 232h32v40h-32z" fill="#4db7e5" data-original="#4DB7E5" class="active-path" style="fill:#3287E4" data-old_color="#4db7e5"/><path d="m320 208h32v64h-32z" fill="#4db7e5" data-original="#4DB7E5" class="active-path" style="fill:#3287E4" data-old_color="#4db7e5"/><path d="m400 144h32v128h-32z" fill="#4db7e5" data-original="#4DB7E5" class="active-path" style="fill:#3287E4" data-old_color="#4db7e5"/><path d="m112 248h-32v120l32-32z" fill="#4db7e5" data-original="#4DB7E5" class="active-path" style="fill:#3287E4" data-old_color="#4db7e5"/></g></g> </svg>
