<?xml version="1.0" encoding="iso-8859-1"?>
<!-- Generator: Adobe Illustrator 19.0.0, SVG Export Plug-In . SVG Version: 6.00 Build 0)  -->
<svg version="1.1" id="Capa_1" xmlns="http://www.w3.org/2000/svg" xmlns:xlink="http://www.w3.org/1999/xlink" x="0px" y="0px"
	 viewBox="0 0 512 512" style="enable-background:new 0 0 512 512;" xml:space="preserve">
<path style="fill:#D8D8E4;" d="M324.142,409H502l0,0v18c0,26.51-21.49,48-48,48H58c-26.51,0-48-21.49-48-48v-18h177.847H324.142z"/>
<path style="fill:#ADE5FF;" d="M479.997,124.498V409H32.003V124.498C32.003,111.52,42.524,101,55.501,101h400.997
	C469.476,101,479.997,111.521,479.997,124.498z"/>
<rect x="80" y="358.64" style="fill:#FFB954;" width="352" height="51.44"/>
<g>
	<path style="fill:#FFFFFF;" d="M432,358.892V37H283.534C268.328,37,256,47.667,256,60.825l0,0v298.066L432,358.892L432,358.892z"/>
	<path style="fill:#FFFFFF;" d="M80.897,359.83V37h148.466c15.207,0,27.534,10.667,27.534,23.825l0,0V359.83H80.897z"/>
</g>
<path style="fill:#FF5D5D;" d="M193.825,129.362l-34.797,22.303c-6.036,3.869-13.962-0.466-13.962-7.635V99.423
	c0-7.169,7.926-11.504,13.962-7.635l34.797,22.303C199.392,117.66,199.392,125.794,193.825,129.362z"/>
<path d="M502,399h-12.003V288.333c0-5.522-4.477-10-10-10s-10,4.478-10,10V399H465h-23v-40.356V111h14.999
	c7.167,0,12.999,5.831,12.999,12.998V211c0,5.522,4.477,10,10,10s10-4.478,10-10v-87.002c0-18.195-14.803-32.998-32.999-32.998H442
	V37c0-5.522-4.477-10-10-10H296c-16.339,0-30.87,7.878-40,20.035C246.87,34.878,232.339,27,216,27H80c-5.523,0-10,4.478-10,10v54
	H55.001c-18.195,0-32.999,14.803-32.999,32.998V399H10c-5.523,0-10,4.478-10,10v18c0,31.981,26.019,58,58,58h396
	c31.981,0,58-26.019,58-58v-18C512,403.478,507.523,399,502,399z M265.982,399c0.004-0.119,0.018-0.236,0.018-0.356
	c0-16.542,13.458-30,30-30h126V399H265.982z M90,368.644h126c16.542,0,30,13.458,30,30c0,0.12,0.014,0.237,0.018,0.356H90V368.644z
	 M296,47h126v301.644H296c-11.246,0-21.638,3.733-30,10.023V142.288V77C266,60.458,279.458,47,296,47z M90,47h126
	c16.542,0,30,13.458,30,30v65.288v216.383c-8.363-6.292-18.752-10.027-30-10.027H90V47z M42.003,123.998
	c0-7.167,5.831-12.998,12.999-12.998H70v247.644V399H42.003V123.998z M492,427c0,20.953-17.047,38-38,38H58
	c-20.953,0-38-17.047-38-38v-8h472V427z"/>
<path d="M278.333,432h-44.167c-5.523,0-10,4.478-10,10s4.477,10,10,10h44.167c5.523,0,10-4.478,10-10S283.856,432,278.333,432z"/>
<path d="M480,240.96c-2.64,0-5.21,1.07-7.07,2.93c-1.86,1.86-2.93,4.43-2.93,7.07c0,2.63,1.07,5.21,2.93,7.07
	c1.86,1.859,4.43,2.93,7.07,2.93c2.63,0,5.21-1.07,7.07-2.93c1.86-1.86,2.93-4.44,2.93-7.07c0-2.641-1.07-5.21-2.93-7.07
	C485.21,242.03,482.63,240.96,480,240.96z"/>
<path d="M314.146,110.979h60c5.523,0,10-4.478,10-10s-4.477-10-10-10h-60c-5.523,0-10,4.478-10,10S308.623,110.979,314.146,110.979z
	"/>
<path d="M314.146,158.979h60c5.523,0,10-4.478,10-10s-4.477-10-10-10h-60c-5.523,0-10,4.478-10,10S308.623,158.979,314.146,158.979z
	"/>
<path d="M314.146,206.979h60c5.523,0,10-4.478,10-10s-4.477-10-10-10h-60c-5.523,0-10,4.478-10,10S308.623,206.979,314.146,206.979z
	"/>
<path d="M314.146,254.979h60c5.523,0,10-4.478,10-10s-4.477-10-10-10h-60c-5.523,0-10,4.478-10,10S308.623,254.979,314.146,254.979z
	"/>
<path d="M314.146,302.979h60c5.523,0,10-4.478,10-10s-4.477-10-10-10h-60c-5.523,0-10,4.478-10,10S308.623,302.979,314.146,302.979z
	"/>
<path d="M198.146,186.853h-60c-5.523,0-10,4.478-10,10s4.477,10,10,10h60c5.523,0,10-4.478,10-10S203.669,186.853,198.146,186.853z"
	/>
<path d="M198.146,234.979h-60c-5.523,0-10,4.478-10,10s4.477,10,10,10h60c5.523,0,10-4.478,10-10S203.669,234.979,198.146,234.979z"
	/>
<path d="M198.146,283.106h-23.479c-5.523,0-10,4.478-10,10s4.477,10,10,10h23.479c5.523,0,10-4.478,10-10
	S203.669,283.106,198.146,283.106z"/>
<path d="M138.15,283.109c-2.64,0-5.21,1.061-7.08,2.921c-1.86,1.869-2.92,4.439-2.92,7.079c0,2.631,1.06,5.21,2.92,7.07
	c1.87,1.86,4.44,2.93,7.08,2.93c2.63,0,5.21-1.069,7.07-2.93s2.93-4.439,2.93-7.07c0-2.63-1.07-5.21-2.93-7.079
	C143.36,284.17,140.78,283.109,138.15,283.109z"/>
<path d="M144.987,160.762c2.858,1.563,6.006,2.338,9.148,2.338c3.584,0,7.162-1.01,10.29-3.016l34.796-22.304
	c5.497-3.522,8.778-9.523,8.779-16.052c0-6.529-3.281-12.531-8.779-16.056L164.425,83.37c-5.873-3.764-13.321-4.023-19.438-0.678
	c-6.119,3.346-9.92,9.757-9.92,16.731v44.606C135.066,151.005,138.868,157.415,144.987,160.762z M155.066,101.127l32.139,20.6
	l-32.139,20.6L155.066,101.127L155.066,101.127z"/>
<g>
</g>
<g>
</g>
<g>
</g>
<g>
</g>
<g>
</g>
<g>
</g>
<g>
</g>
<g>
</g>
<g>
</g>
<g>
</g>
<g>
</g>
<g>
</g>
<g>
</g>
<g>
</g>
<g>
</g>
</svg>
